<svg xmlns="http://www.w3.org/2000/svg" width="243.457" height="217.676" viewBox="0 0 243.457 217.676">
  <path id="Logo" d="M160.474,83.324,211,147.562l-47.118,31.76q20.128,12.119,32.23,28.6t18.85,42.547q3.081,12.6,6.308,18.455,2.2,3.809,8.228,9.023l14.616-12.392,5.054,5.273L213.647,301q-10.7-6.738-15.395-14.355-3.371-5.127-12.314-34.717a101.638,101.638,0,0,0-12.315-26.807q-7.476-11.133-15.833-16.772t-22.586-10.268l-9.814,6.544v60.91a171.822,171.822,0,0,1,28.166,12.476L168.736,264.6l4.7,5.127L135.352,301q-20.789-10.547-36.088-14.795a114.69,114.69,0,0,0-30.817-4.248A110.368,110.368,0,0,0,30.97,288.4Q21.453,291.918,9.741,301l-4.028-3.516Q20.247,278.881,35,270.092t36.19-11.865v-6.592q0-14.209-3.671-23.218t-13.364-18.9a98.708,98.708,0,0,0-20.414-16.187q-6.9-3.955-19.386-7.91v-6.006Q26.25,175.023,43.581,163.3l27.61-18.457q0-18.9-2.644-27.026a26.443,26.443,0,0,0-10.28-13.55,28.753,28.753,0,0,0-17.037-5.42A29.565,29.565,0,0,0,30.8,100.609,55.4,55.4,0,0,0,19.2,107.2l-4.845-3.516Q25.781,91.967,34.937,87.792t22.632-4.175q15.088,0,25.122,6.006a37.775,37.775,0,0,1,15.015,16.406q2.93,6.3,3.369,18.164ZM140.84,104.981l-15.45,10.632v80.944l57.355-38.232Zm-22.188,15.266-17.578,12.092V259.252a125.629,125.629,0,0,1,17.578,3.987Zm-47.461,32.8L38.525,175.023A99.514,99.514,0,0,1,53.9,183.813a209.937,209.937,0,0,1,17.29,14.648Z" transform="translate(-5.713 -83.324)"/>
</svg>
